<?xml version="1.0" standalone="no"?>
<!DOCTYPE svg PUBLIC "-//W3C//DTD SVG 20010904//EN"
 "http://www.w3.org/TR/2001/REC-SVG-20010904/DTD/svg10.dtd">
<svg version="1.0" xmlns="http://www.w3.org/2000/svg"
 width="652.000000pt" height="652.000000pt" viewBox="0 0 652.000000 652.000000"
 preserveAspectRatio="xMidYMid meet">

<g transform="translate(0.000000,652.000000) scale(0.100000,-0.100000)"
fill="#000000" stroke="none">
<path d="M5720 6209 c-1760 -70 -3206 -407 -4115 -957 -747 -453 -1165 -1029
-1280 -1767 -22 -142 -30 -436 -16 -575 26 -248 83 -448 186 -655 60 -119 181
-305 204 -313 5 -2 26 25 47 60 70 117 240 372 349 523 297 413 601 771 960
1130 558 558 1135 987 1761 1311 135 70 151 76 194 72 88 -9 147 -79 137 -164
-8 -71 -34 -95 -186 -172 -1139 -580 -2209 -1610 -2966 -2856 l-79 -129 40
-35 c70 -61 245 -172 363 -231 367 -184 809 -273 1275 -258 200 7 328 24 480
63 437 115 778 367 1049 776 254 381 433 877 622 1718 207 924 588 1689 1177
2368 l89 102 -48 -2 c-26 0 -136 -5 -243 -9z"/>
</g>
</svg>
